<?xml version="1.0" encoding="UTF-8"?>
<svg version="1.1" xmlns="http://www.w3.org/2000/svg" width="144" height="67">
<path d="M0 0 C0.804375 0.495 1.60875 0.99 2.4375 1.5 C2.911875 1.005 3.38625 0.51 3.875 0 C7.66774396 -2.2201428 11.14876838 -1.70386576 15.4375 -1.5 C17.76435243 -1.5 20.09127818 -1.50771167 22.41796875 -1.53515625 C23.47628906 -1.54417969 24.53460938 -1.55320312 25.625 -1.5625 C26.69105469 -1.57410156 27.75710937 -1.58570313 28.85546875 -1.59765625 C31.4375 -1.5 31.4375 -1.5 32.4375 -0.5 C32.52597743 2.02094076 32.55277301 4.51430893 32.53515625 7.03515625 C32.5337413 7.78840683 32.53232635 8.54165741 32.53086853 9.31773376 C32.52525376 11.7326956 32.51269883 14.14756601 32.5 16.5625 C32.4949869 18.19596221 32.49042366 19.82942586 32.48632812 21.46289062 C32.47527954 25.47529585 32.45800506 29.48763241 32.4375 33.5 C28.1475 33.5 23.8575 33.5 19.4375 33.5 C19.1075 25.91 18.7775 18.32 18.4375 10.5 C16.4575 10.83 14.4775 11.16 12.4375 11.5 C12.1075 18.76 11.7775 26.02 11.4375 33.5 C7.1475 33.5 2.8575 33.5 -1.5625 33.5 C-2.0575 22.115 -2.0575 22.115 -2.5625 10.5 C-4.5425 10.5 -6.5225 10.5 -8.5625 10.5 C-8.8925 18.09 -9.2225 25.68 -9.5625 33.5 C-13.8525 33.5 -18.1425 33.5 -22.5625 33.5 C-22.64397661 29.99952346 -22.70323128 26.50097261 -22.75 23 C-22.77513672 22.01773438 -22.80027344 21.03546875 -22.82617188 20.0234375 C-22.89837891 12.80273407 -22.30915349 6.84748394 -17.5625 1.0625 C-12.47096939 -2.91525829 -5.66658355 -2.38592992 0 0 Z " fill="#1E1665" transform="translate(38.5625,17.5)"/>
<path d="M0 0 C4.93852217 2.25265923 7.80894426 5.71486801 11 10 C11.96070434 12.88211302 12.10581883 14.69850044 12.0625 17.6875 C12.05347656 18.49574219 12.04445312 19.30398437 12.03515625 20.13671875 C12.02355469 20.75160156 12.01195312 21.36648437 12 22 C9.69 22.66 7.38 23.32 5 24 C6.2375 24.6496875 6.2375 24.6496875 7.5 25.3125 C8.325 25.869375 9.15 26.42625 10 27 C10 27.99 10 28.98 10 30 C4.20259514 34.66620391 -1.20941887 36.29074918 -8.5625 35.8125 C-14.98348812 35.05605482 -19.87588974 33.15513783 -24 28 C-26.26893983 23.12177936 -26.60902375 18.29089387 -26 13 C-24.09184264 7.77767459 -20.9669968 3.91548778 -16.26953125 0.8828125 C-11.17751127 -1.09790439 -5.35370328 -0.49859868 0 0 Z M-12 12 C-12 12.33 -12 12.66 -12 13 C-8.7 13 -5.4 13 -2 13 C-2.33 12.34 -2.66 11.68 -3 11 C-6.73206842 9.78959943 -8.68042385 9.9098965 -12 12 Z M-11 23 C-7.1496895 25.56687367 -5.41430237 24.83288724 -1 24 C-1 23.67 -1 23.34 -1 23 C-4.3 23 -7.6 23 -11 23 Z " fill="#221C64" transform="translate(131,16)"/>
<path d="M0 0 C3.625 0.375 3.625 0.375 6.0625 2 C8.07314771 5.05618452 8.16020313 6.78149325 7.625 10.375 C6.125 12.25 6.125 12.25 4.625 13.375 C5.285 13.705 5.945 14.035 6.625 14.375 C6.625 25.925 6.625 37.475 6.625 49.375 C2.335 49.375 -1.955 49.375 -6.375 49.375 C-6.42436883 44.56951403 -6.46070443 39.76417506 -6.48486328 34.95849609 C-6.49493254 33.32305328 -6.50858881 31.68762851 -6.52587891 30.05224609 C-6.55008705 27.7040563 -6.56147357 25.35610412 -6.5703125 23.0078125 C-6.58063507 22.27442657 -6.59095764 21.54104065 -6.60159302 20.78543091 C-6.60199368 18.98037303 -6.49712755 17.1759217 -6.375 15.375 C-5.715 14.715 -5.055 14.055 -4.375 13.375 C-5.179375 12.323125 -5.179375 12.323125 -6 11.25 C-7.375 8.375 -7.375 8.375 -6.6875 5.1875 C-4.88117895 1.31681203 -4.32422213 0.48046913 0 0 Z " fill="#1C1465" transform="translate(80.375,1.625)"/>
<path d="M0 0 C11 4 11 4 13 6 C13.24050903 7.87295532 13.24050903 7.87295532 13.22705078 10.17431641 C13.22682419 11.46542831 13.22682419 11.46542831 13.22659302 12.78262329 C13.21627045 13.71287323 13.20594788 14.64312317 13.1953125 15.6015625 C13.1924826 16.55316254 13.18965271 17.50476257 13.18673706 18.48519897 C13.17551989 21.53192592 13.15041263 24.57836154 13.125 27.625 C13.11497218 29.68749576 13.10584599 31.74999612 13.09765625 33.8125 C13.07557554 38.87511267 13.0410353 43.9375069 13 49 C8.71 49 4.42 49 0 49 C0 32.83 0 16.66 0 0 Z " fill="#1B1464" transform="translate(91,2)"/>
<path d="M0 0 C2.94450934 2.53364757 4.80956091 4.91776395 6.6875 8.3125 C6.6875 9.3025 6.6875 10.2925 6.6875 11.3125 C6.01203125 11.36148437 5.3365625 11.41046875 4.640625 11.4609375 C3.30257813 11.57308594 3.30257813 11.57308594 1.9375 11.6875 C0.61492188 11.79191406 0.61492188 11.79191406 -0.734375 11.8984375 C-3.35462225 12.31926509 -5.07986058 12.89440595 -7.3125 14.3125 C-9.97343395 18.5502837 -10.81778333 22.36533331 -11.3125 27.3125 C-17.188974 27.02584273 -20.37683135 24.39995753 -24.3125 20.3125 C-26.17244341 16.59261318 -25.7500354 12.37185619 -25.3125 8.3125 C-24.00642402 4.47945093 -22.08193166 1.88957375 -18.8125 -0.5625 C-12.37024732 -3.46151371 -6.30294213 -3.21093278 0 0 Z " fill="#2EAADE" transform="translate(26.3125,3.6875)"/>
<path d="M0 0 C2.5 0.1875 2.5 0.1875 4.5 1.1875 C7.02733235 1.84305119 7.02733235 1.84305119 9.5 2.1875 C9.83 1.8575 10.16 1.5275 10.5 1.1875 C13.13415718 1.11383789 15.7417495 1.09523282 18.375 1.125 C19.47521484 1.13176758 19.47521484 1.13176758 20.59765625 1.13867188 C22.56513151 1.15121498 24.53257086 1.1690937 26.5 1.1875 C27.49 1.1875 28.48 1.1875 29.5 1.1875 C36.16666667 1.1875 42.83333333 1.1875 49.5 1.1875 C49.995 2.1775 49.995 2.1775 50.5 3.1875 C49.72265625 5.1328125 49.72265625 5.1328125 48.5625 7.3125 C47.99208984 8.39917969 47.99208984 8.39917969 47.41015625 9.5078125 C47.10980469 10.06210938 46.80945313 10.61640625 46.5 11.1875 C45.51 11.1875 44.52 11.1875 43.5 11.1875 C43.5 10.5275 43.5 9.8675 43.5 9.1875 C36.9 9.1875 30.3 9.1875 23.5 9.1875 C23.5 9.8475 23.5 10.5075 23.5 11.1875 C22.51 11.1875 21.52 11.1875 20.5 11.1875 C20.5 10.5275 20.5 9.8675 20.5 9.1875 C19.80132812 9.1875 19.10265625 9.1875 18.3828125 9.1875 C15.08854167 9.1875 11.79427083 9.1875 8.5 9.1875 C7.6646875 9.21070312 6.829375 9.23390625 5.96875 9.2578125 C4.49921875 9.28488281 4.49921875 9.28488281 3 9.3125 C2.0203125 9.33570312 1.040625 9.35890625 0.03125 9.3828125 C-2.5 9.1875 -2.5 9.1875 -4.5 7.1875 C-4.75 4.6875 -4.75 4.6875 -4.5 2.1875 C-2.5 0.1875 -2.5 0.1875 0 0 Z M-1.5 4.1875 C0.48 5.1775 0.48 5.1775 2.5 6.1875 C2.5 5.5275 2.5 4.8675 2.5 4.1875 C1.18 4.1875 -0.14 4.1875 -1.5 4.1875 Z " fill="#342D6C" transform="translate(80.5,54.8125)"/>
<path d="M0 0 C0.33 0.66 0.66 1.32 1 2 C2.22976562 1.89171875 2.22976562 1.89171875 3.484375 1.78125 C5.10085937 1.64203125 5.10085937 1.64203125 6.75 1.5 C8.35101563 1.36078125 8.35101563 1.36078125 9.984375 1.21875 C12.3179218 1.04947717 14.66032182 1 17 1 C17 3.97 17 6.94 17 10 C1.66666667 10 -13.66666667 10 -29 10 C-28.67 7.03 -28.34 4.06 -28 1 C-25.03 1 -22.06 1 -19 1 C-18.67 1.66 -18.34 2.32 -18 3 C-16.8553125 2.7525 -16.8553125 2.7525 -15.6875 2.5 C-13 2 -13 2 -10 2 C-9.401875 1.67 -8.80375 1.34 -8.1875 1 C-5.36914516 -0.28839078 -3.0621745 -0.13918975 0 0 Z M5 5 C6 7 6 7 6 7 Z " fill="#37316E" transform="translate(56,54)"/>
<path d="M0 0 C3.625 0.375 3.625 0.375 6.0625 2 C8.08432313 5.07317115 8.15255517 6.75747881 7.625 10.375 C6.1875 12.625 6.1875 12.625 4.625 14.375 C4.295 15.035 3.965 15.695 3.625 16.375 C0.985 16.375 -1.655 16.375 -4.375 16.375 C-4.375 26.935 -4.375 37.495 -4.375 48.375 C2.90873595 48.29591092 2.90873595 48.29591092 4.625 46.375 C4.78388092 44.08511219 4.87638073 41.79056559 4.94140625 39.49609375 C4.96218735 38.8094313 4.98296844 38.12276886 5.00437927 37.41529846 C5.06994143 35.21447065 5.12879015 33.01352025 5.1875 30.8125 C5.23067892 29.32355486 5.274293 27.83462227 5.31835938 26.34570312 C5.4256293 22.68893447 5.52687772 19.03202682 5.625 15.375 C5.955 15.375 6.285 15.375 6.625 15.375 C6.625 26.595 6.625 37.815 6.625 49.375 C2.335 49.375 -1.955 49.375 -6.375 49.375 C-6.42436883 44.56951403 -6.46070443 39.76417506 -6.48486328 34.95849609 C-6.49493254 33.32305328 -6.50858881 31.68762851 -6.52587891 30.05224609 C-6.55008705 27.7040563 -6.56147357 25.35610412 -6.5703125 23.0078125 C-6.58063507 22.27442657 -6.59095764 21.54104065 -6.60159302 20.78543091 C-6.60199368 18.98037303 -6.49712755 17.1759217 -6.375 15.375 C-5.715 14.715 -5.055 14.055 -4.375 13.375 C-5.179375 12.323125 -5.179375 12.323125 -6 11.25 C-7.375 8.375 -7.375 8.375 -6.6875 5.1875 C-4.88117895 1.31681203 -4.32422213 0.48046913 0 0 Z " fill="#3C3677" transform="translate(80.375,1.625)"/>
<path d="M0 0 C1.98 0.99 1.98 0.99 4 2 C3.01 2 2.02 2 1 2 C1 17.18 1 32.36 1 48 C3.97 48 6.94 48 10 48 C10 33.48 10 18.96 10 4 C10.99 4.66 11.98 5.32 13 6 C13.36076355 7.87295532 13.36076355 7.87295532 13.34057617 10.17431641 C13.34034958 11.03505768 13.34012299 11.89579895 13.33988953 12.78262329 C13.32440567 13.71287323 13.30892181 14.64312317 13.29296875 15.6015625 C13.28872391 16.55316254 13.28447906 17.50476257 13.28010559 18.48519897 C13.26327896 21.53208414 13.22561954 24.57831391 13.1875 27.625 C13.17245831 29.68749046 13.15876901 31.74999127 13.14648438 33.8125 C13.11336239 38.8752535 13.06155284 43.93751554 13 49 C8.71 49 4.42 49 0 49 C0 32.83 0 16.66 0 0 Z " fill="#373371" transform="translate(91,2)"/>
<path d="M0 0 C4.62 0 9.24 0 14 0 C14.33 0.66 14.66 1.32 15 2 C14.22265625 3.9453125 14.22265625 3.9453125 13.0625 6.125 C12.68222656 6.84945312 12.30195313 7.57390625 11.91015625 8.3203125 C11.60980469 8.87460938 11.30945313 9.42890625 11 10 C10.01 10 9.02 10 8 10 C8 9.34 8 8.68 8 8 C3.38 8 -1.24 8 -6 8 C-5.67 6.35 -5.34 4.7 -5 3 C-4.01 2.67 -3.02 2.34 -2 2 C-1.67 2.33 -1.34 2.66 -1 3 C-0.67 2.01 -0.34 1.02 0 0 Z " fill="#413A74" transform="translate(116,56)"/>
<path d="M0 0 C1.97909398 -0.02686553 3.95828971 -0.04633375 5.9375 -0.0625 C7.03964844 -0.07410156 8.14179687 -0.08570313 9.27734375 -0.09765625 C12 0 12 0 13 1 C13.08847743 3.52094076 13.11527301 6.01430893 13.09765625 8.53515625 C13.0962413 9.28840683 13.09482635 10.04165741 13.09336853 10.81773376 C13.08775376 13.2326956 13.07519883 15.64756601 13.0625 18.0625 C13.0574869 19.69596221 13.05292366 21.32942586 13.04882812 22.96289062 C13.03777954 26.97529585 13.02050506 30.98763241 13 35 C8.71 35 4.42 35 0 35 C-0.33 28.07 -0.66 21.14 -1 14 C-0.34 14 0.32 14 1 14 C1 20.6 1 27.2 1 34 C4.3 34 7.6 34 11 34 C11 23.44 11 12.88 11 2 C7.7 2 4.4 2 1 2 C0.67 2.99 0.34 3.98 0 5 C-0.33 4.34 -0.66 3.68 -1 3 C-0.67 2.01 -0.34 1.02 0 0 Z " fill="#31246E" transform="translate(58,16)"/>
<path d="M0 0 C1.2065625 0.0309375 1.2065625 0.0309375 2.4375 0.0625 C2.4375 0.7225 2.4375 1.3825 2.4375 2.0625 C3.7575 2.7225 5.0775 3.3825 6.4375 4.0625 C6.25 7.375 6.25 7.375 5.4375 11.0625 C2.875 13 2.875 13 0.4375 14.0625 C0.4375 13.4025 0.4375 12.7425 0.4375 12.0625 C-1.2125 12.0625 -2.8625 12.0625 -4.5625 12.0625 C-5.75 9.375 -5.75 9.375 -6.5625 6.0625 C-3.77631579 0.09210526 -3.77631579 0.09210526 0 0 Z " fill="#221B67" transform="translate(79.5625,1.9375)"/>
<path d="M0 0 C-0.33 0.66 -0.66 1.32 -1 2 C-2.32 2.33 -3.64 2.66 -5 3 C-5.33 10.26 -5.66 17.52 -6 25 C-10.29 25 -14.58 25 -19 25 C-19.33 17.74 -19.66 10.48 -20 3 C-19.34 3 -18.68 3 -18 3 C-17.67 9.93 -17.34 16.86 -17 24 C-14.36 24 -11.72 24 -9 24 C-9.01047363 23.44538086 -9.02094727 22.89076172 -9.03173828 22.31933594 C-9.07342004 19.79627041 -9.09936438 17.27327747 -9.125 14.75 C-9.14175781 13.87730469 -9.15851562 13.00460938 -9.17578125 12.10546875 C-9.18222656 11.26113281 -9.18867187 10.41679688 -9.1953125 9.546875 C-9.20578613 8.77182617 -9.21625977 7.99677734 -9.22705078 7.19824219 C-8.96910895 4.70092151 -8.32760406 3.12160333 -7 1 C-4.53721199 -0.231394 -2.7204945 -0.07159196 0 0 Z " fill="#332E70" transform="translate(56,26)"/>
<path d="M0 0 C2.97 0 5.94 0 9 0 C8.4140625 6.15234375 8.4140625 6.15234375 8 8 C5.04335481 9.4783226 2.25770263 9.06032783 -1 9 C-0.67 6.03 -0.34 3.06 0 0 Z " fill="#252066" transform="translate(28,55)"/>
<path d="M0 0 C-0.66 2.97 -1.32 5.94 -2 9 C-3.65 9 -5.3 9 -7 9 C-6.67 7.68 -6.34 6.36 -6 5 C-6.99 5.495 -6.99 5.495 -8 6 C-8 6.99 -8 7.98 -8 9 C-8.99 9 -9.98 9 -11 9 C-11.3125 6.1875 -11.3125 6.1875 -11 3 C-7.49047762 -0.09663739 -4.5654558 -0.31852017 0 0 Z " fill="#2A2265" transform="translate(56,54)"/>
<path d="M0 0 C0.78375 0.04125 1.5675 0.0825 2.375 0.125 C2.705 1.445 3.035 2.765 3.375 4.125 C2.385 4.62 2.385 4.62 1.375 5.125 C2.365 6.61 2.365 6.61 3.375 8.125 C2.375 9.125 2.375 9.125 -0.0625 9.3125 C-2.625 9.125 -2.625 9.125 -4.625 7.125 C-4.875 4.625 -4.875 4.625 -4.625 2.125 C-2.625 0.125 -2.625 0.125 0 0 Z " fill="#383170" transform="translate(80.625,54.875)"/>
<path d="M0 0 C0.886875 0.45375 1.77375 0.9075 2.6875 1.375 C5.04210678 0.70075833 5.04210678 0.70075833 6.6875 -0.625 C6.6875 0.035 6.6875 0.695 6.6875 1.375 C3.6875 3.375 3.6875 3.375 1.2421875 3.16796875 C0.35789062 2.96816406 -0.52640625 2.76835937 -1.4375 2.5625 C-2.32695313 2.37042969 -3.21640625 2.17835937 -4.1328125 1.98046875 C-6.3125 1.375 -6.3125 1.375 -7.3125 0.375 C-7.84359375 0.57996094 -8.3746875 0.78492188 -8.921875 0.99609375 C-9.98148438 1.40021484 -9.98148438 1.40021484 -11.0625 1.8125 C-12.10664063 2.21275391 -12.10664063 2.21275391 -13.171875 2.62109375 C-15.20309003 3.33646693 -17.2160291 3.88865652 -19.3125 4.375 C-14.32897514 -2.32698171 -7.60538051 -3.73094138 0 0 Z " fill="#2E2765" transform="translate(38.3125,17.625)"/>
<path d="M0 0 C0.99 0 1.98 0 3 0 C3 0.99 3 1.98 3 3 C2.34 3 1.68 3 1 3 C1 3.66 1 4.32 1 5 C1.99 5 2.98 5 4 5 C4.33 3.68 4.66 2.36 5 1 C5.33 1 5.66 1 6 1 C6 2.98 6 4.96 6 7 C3.625 7.625 3.625 7.625 1 8 C0.34 7.34 -0.32 6.68 -1 6 C-0.625 2.875 -0.625 2.875 0 0 Z " fill="#292366" transform="translate(63,56)"/>
<path d="M0 0 C2 3 2 3 1.625 6.1875 C1.41875 7.115625 1.2125 8.04375 1 9 C-2.3 9 -5.6 9 -9 9 C-8.34 7.35 -7.68 5.7 -7 4 C-6.34 4 -5.68 4 -5 4 C-5 4.99 -5 5.98 -5 7 C-3.68 7.33 -2.36 7.66 -1 8 C-1.020625 7.05125 -1.04125 6.1025 -1.0625 5.125 C-1 2 -1 2 0 0 Z " fill="#373372" transform="translate(55,55)"/>
<path d="M0 0 C1.65 0 3.3 0 5 0 C5 2.31 5 4.62 5 7 C3.35 7 1.7 7 0 7 C0 4.69 0 2.38 0 0 Z " fill="#272267" transform="translate(117,56)"/>
<path d="M0 0 C1.4540625 0.0309375 1.4540625 0.0309375 2.9375 0.0625 C2.9375 2.3725 2.9375 4.6825 2.9375 7.0625 C2.48375 6.4025 2.03 5.7425 1.5625 5.0625 C1.02625 4.4025 0.49 3.7425 -0.0625 3.0625 C-0.7225 3.0625 -1.3825 3.0625 -2.0625 3.0625 C-1.7325 4.3825 -1.4025 5.7025 -1.0625 7.0625 C-2.0525 7.0625 -3.0425 7.0625 -4.0625 7.0625 C-4.10504356 5.06295254 -4.10330783 3.06208364 -4.0625 1.0625 C-3.0625 0.0625 -3.0625 0.0625 0 0 Z " fill="#2F296B" transform="translate(113.0625,55.9375)"/>
<path d="M0 0 C2.46800047 1.15173355 4.04783565 2.04783565 6 4 C6.55743243 9.23986486 6.55743243 9.23986486 4.625 11.875 C3 13 3 13 1 13 C0.67 13.66 0.34 14.32 0 15 C0.33 13.68 0.66 12.36 1 11 C1.66 11 2.32 11 3 11 C3.25015873 7.58357241 3.25015873 7.58357241 3 4 C2.01 3.34 1.02 2.68 0 2 C0 1.34 0 0.68 0 0 Z " fill="#37376C" transform="translate(82,2)"/>
<path d="M0 0 C0.99 0 1.98 0 3 0 C3.33 1.32 3.66 2.64 4 4 C3.01 3.67 2.02 3.34 1 3 C1 3.66 1 4.32 1 5 C1.66 5 2.32 5 3 5 C3 5.66 3 6.32 3 7 C1.35 6.67 -0.3 6.34 -2 6 C-1.125 1.125 -1.125 1.125 0 0 Z " fill="#2A246A" transform="translate(85,56)"/>
<path d="M0 0 C1.32 0 2.64 0 4 0 C4 1.65 4 3.3 4 5 C2.35 5.33 0.7 5.66 -1 6 C-1.042721 4.33388095 -1.04063832 2.66617115 -1 1 C-0.67 0.67 -0.34 0.34 0 0 Z " fill="#292469" transform="translate(39,56)"/>
<path d="M0 0 C3.73487777 0.4979837 5.81237635 0.87491756 9 3 C8 4 8 4 5.93359375 4.09765625 C5.10988281 4.08605469 4.28617187 4.07445312 3.4375 4.0625 C2.61121094 4.05347656 1.78492187 4.04445313 0.93359375 4.03515625 C0.29550781 4.02355469 -0.34257813 4.01195312 -1 4 C-0.67 2.68 -0.34 1.36 0 0 Z " fill="#2F2A64" transform="translate(76,14)"/>
<path d="M0 0 C0.66 0 1.32 0 2 0 C2 0.99 2 1.98 2 3 C2.99 3 3.98 3 5 3 C5 3.99 5 4.98 5 6 C3.35 6.33 1.7 6.66 0 7 C0 4.69 0 2.38 0 0 Z " fill="#2B2569" transform="translate(102,58)"/>
<path d="M0 0 C0.99 0.66 1.98 1.32 3 2 C2.67 3.65 2.34 5.3 2 7 C0.35 7.33 -1.3 7.66 -3 8 C-2.01 7.67 -1.02 7.34 0 7 C0 6.34 0 5.68 0 5 C-0.66 5 -1.32 5 -2 5 C-2 4.34 -2 3.68 -2 3 C-1.34 2.67 -0.68 2.34 0 2 C0 1.34 0 0.68 0 0 Z " fill="#3F3C77" transform="translate(88,56)"/>
<path d="M0 0 C0.66 0.33 1.32 0.66 2 1 C2.625 3.5625 2.625 3.5625 3 6 C1.02 6 -0.96 6 -3 6 C-2.625 3.5625 -2.625 3.5625 -2 1 C-1.34 0.67 -0.68 0.34 0 0 Z " fill="#433D78" transform="translate(113,58)"/>
<path d="M0 0 C0.99 0.33 1.98 0.66 3 1 C2.67 3.64 2.34 6.28 2 9 C1.34 9 0.68 9 0 9 C0 6.03 0 3.06 0 0 Z " fill="#28225E" transform="translate(70,54)"/>
<path d="M0 0 C3 3.625 3 3.625 3 7 C-0.3 7 -3.6 7 -7 7 C-7 6.67 -7 6.34 -7 6 C-3.535 5.505 -3.535 5.505 0 5 C0 3.35 0 1.7 0 0 Z " fill="#4AADCF" transform="translate(30,8)"/>
<path d="M0 0 C2.62386487 3.06117568 3 3.73173127 3 8 C1.68 8 0.36 8 -1 8 C-0.67 5.36 -0.34 2.72 0 0 Z " fill="#3A356E" transform="translate(28,56)"/>
<path d="M0 0 C0.66 0 1.32 0 2 0 C2 2.64 2 5.28 2 8 C1.01 8 0.02 8 -1 8 C-0.67 5.36 -0.34 2.72 0 0 Z " fill="#272266" transform="translate(141,30)"/>
<path d="M0 0 C-1.4638611 4.39158329 -3.97831338 4.87947433 -8 7 C-7.8125 5.1875 -7.8125 5.1875 -7 3 C-2.82142857 0 -2.82142857 0 0 0 Z " fill="#45A8DA" transform="translate(12,2)"/>
</svg>
